<svg id="Layer_1" enable-background="new 0 0 512 512" height="512" viewBox="0 0 512 512" width="512" xmlns="http://www.w3.org/2000/svg"><g><g><g><g><path d="m504.5 330.65h-497v-275.15c0-16.569 13.431-30 30-30h437c16.569 0 30 13.431 30 30z" fill="#f5f9fa"/><path d="m474.5 25.5h-40c16.569 0 30 13.431 30 30v275.15h40v-275.15c0-16.569-13.431-30-30-30z" fill="#f0f4f5"/><path d="m397.56 43.5h-283.12c-9.941 0-18-8.059-18-18 0-9.941 8.059-18 18-18h283.12c9.941 0 18 8.059 18 18 0 9.941-8.059 18-18 18z" fill="#ff8fe9"/><path d="m397.56 7.5h-40c9.941 0 18 8.059 18 18s-8.059 18-18 18h40c9.941 0 18-8.059 18-18s-8.059-18-18-18z" fill="#ff75e4"/><path d="m474.5 375h-437c-16.569 0-30-13.431-30-30v-14.35h497v14.35c0 16.569-13.431 30-30 30z" fill="#51acdb"/><path d="m464.5 330.65v14.35c0 16.569-13.431 30-30 30h40c16.569 0 30-13.431 30-30v-14.35z" fill="#32a2db"/></g></g><g><path d="m409.947 287.333h-307.894c-5.523 0-10-4.477-10-10v-180.666c0-5.523 4.477-10 10-10h307.893c5.523 0 10 4.477 10 10v180.667c.001 5.522-4.476 9.999-9.999 9.999z" fill="#a6e4ff"/><g><path d="m299.564 233.263 51.002-48.293 69.381 65.697v26.667c0 5.523-4.477 10-10 10h-110.383z" fill="#99c754"/><path d="m92.053 251.035 113.14-107.132 151.307 143.273h-254.447c-5.523 0-10-4.477-10-10z" fill="#c4f27e"/></g></g><circle cx="298.564" cy="144.428" fill="#ffe100" r="30.291"/></g><g><path d="m474.5 18h-52.567c-3.21-10.412-12.922-18-24.373-18h-219.242c-9.697 0-9.697 15 0 15h219.242c5.79 0 10.5 4.71 10.5 10.5s-4.71 10.5-10.5 10.5h-283.12c-5.79 0-10.5-4.71-10.5-10.5s4.71-10.5 10.5-10.5h23.891c9.697 0 9.697-15 0-15h-23.891c-11.451 0-21.162 7.588-24.373 18h-52.567c-20.678 0-37.5 16.822-37.5 37.5v289.5c0 20.678 16.822 37.5 37.5 37.5h211v62.344c-39.009 9.678-33.08 66.166 7.501 67.156 40.587-.994 46.502-57.485 7.499-67.156v-62.344h92.5c9.817-.268 9.997-14.671 0-15h-318.5c-12.407 0-22.5-10.093-22.5-22.5v-6.85h482v6.85c0 12.407-10.093 22.5-22.5 22.5h-78.5c-9.858.265-9.953 14.696 0 15h78.5c20.678 0 37.5-16.822 37.5-37.5v-289.5c0-20.678-16.822-37.5-37.5-37.5zm-199.5 460c0 10.477-8.523 19-19 19-25.171-.955-25.165-37.049 0-38 10.477 0 19 8.523 19 19zm-260-154.85v-267.65c0-12.407 10.093-22.5 22.5-22.5h52.567c3.21 10.412 12.922 18 24.373 18h283.12c11.451 0 21.162-7.588 24.373-18h52.567c12.407 0 22.5 10.093 22.5 22.5v267.65z"/><path d="m409.947 79.167h-307.894c-9.649 0-17.5 7.851-17.5 17.5v180.667c0 9.649 7.851 17.5 17.5 17.5h307.894c9.649 0 17.5-7.851 17.5-17.5v-180.667c0-9.65-7.851-17.5-17.5-17.5zm-307.894 15h307.894c1.378 0 2.5 1.122 2.5 2.5v136.57l-56.725-53.713c-2.893-2.739-7.421-2.739-10.313 0l-45.845 43.411-89.214-84.476c-2.893-2.739-7.421-2.739-10.313 0l-100.484 95.146v-136.938c0-1.379 1.122-2.5 2.5-2.5zm-2.5 183.166v-23.071l105.64-100.03 132.645 125.601h-235.785c-1.378 0-2.5-1.121-2.5-2.5zm310.394 2.5h-50.292l-49.182-46.571 40.094-37.965 61.881 58.596v23.44c-.001 1.379-1.123 2.5-2.501 2.5z"/><path d="m58.46 162.229c-3.491-2.232-8.128-1.21-10.359 2.28-8.665 13.556-8.835 31.167-.432 44.865 5.36 8.735 17.664.109 12.786-7.844-5.335-8.698-5.221-20.329.285-28.942 2.231-3.49 1.21-8.128-2.28-10.359z"/><path d="m454.226 162.155c-3.531 2.166-4.637 6.784-2.471 10.315 5.335 8.697 5.221 20.329-.285 28.942-5.042 7.887 7.143 16.674 12.639 8.078 8.665-13.556 8.834-31.167.432-44.864-2.166-3.529-6.783-4.637-10.315-2.471z"/><path d="m298.564 182.219c20.838 0 37.791-16.953 37.791-37.791-1.9-50.066-73.69-50.052-75.583 0 0 20.838 16.954 37.791 37.792 37.791zm0-60.582c12.567 0 22.791 10.224 22.791 22.791-1.146 30.194-44.441 30.185-45.583 0 0-12.567 10.225-22.791 22.792-22.791z"/></g></g></svg>